<?xml version="1.0" encoding="UTF-8"?>
<svg xmlns="http://www.w3.org/2000/svg" xmlns:xlink="http://www.w3.org/1999/xlink" width="4096px" height="4096px" viewBox="0 0 4096 4096" version="1.1">
<g id="surface1">
<path style=" stroke:none;fill-rule:nonzero;fill:rgb(86.27451%,86.27451%,87.058824%);fill-opacity:1;" d="M 1637.5 992.707031 C 1644.160156 1019.03125 1649.488281 1045.300781 1653.472656 1071.511719 C 1664.53125 1142.949219 1620.378906 1213.398438 1566.390625 1253.292969 C 1564.722656 1254.496094 1562.542969 1254.730469 1560.660156 1253.90625 C 1558.773438 1253.082031 1557.464844 1251.320312 1557.21875 1249.28125 C 1552.574219 1209.738281 1563.089844 1169.164062 1588.757812 1127.546875 C 1593.289062 1120.121094 1591.597656 1118.179688 1583.675781 1121.730469 C 1524.695312 1147.945312 1476.691406 1213.152344 1440.972656 1272.300781 C 1439.714844 1274.429688 1437.886719 1275.765625 1435.484375 1276.3125 C 1419.429688 1280.027344 1409.679688 1273.171875 1406.238281 1255.75 C 1397.0625 1209.929688 1390.703125 1162.9375 1387.152344 1114.765625 C 1383.546875 1065.886719 1382.972656 1021.160156 1385.429688 980.582031 C 1393.023438 856.335938 1422.757812 732.5 1474.640625 609.074219 C 1496.871094 556.046875 1523.492188 510.417969 1554.515625 472.1875 C 1680.179688 317.277344 1869.25 239.78125 2063.320312 213.648438 C 2138.46875 203.542969 2217.21875 196.773438 2299.578125 193.332031 C 2358.148438 190.875 2396.160156 186.695312 2442.609375 202.261719 C 2456.972656 207.011719 2459.539062 215.367188 2450.308594 227.328125 C 2430.566406 252.886719 2419.671875 280.414062 2416.394531 313.589844 C 2409.621094 382.675781 2389.742188 452.390625 2356.757812 522.730469 C 2356.21875 523.816406 2355.179688 524.570312 2353.992188 524.738281 C 2352.804688 524.902344 2351.625 524.457031 2350.859375 523.550781 C 2349.054688 521.476562 2348.429688 519.128906 2348.972656 516.503906 C 2360.824219 456.15625 2371.9375 389.800781 2382.316406 317.441406 C 2384.828125 300.019531 2380.921875 298.433594 2370.601562 312.6875 C 2363.828125 322.082031 2356.839844 330.492188 2349.628906 337.921875 C 2304.820312 383.960938 2264.515625 424.101562 2239.9375 480.707031 C 2223.554688 518.390625 2208.753906 555.0625 2195.539062 590.726562 C 2193.460938 596.296875 2192.480469 596.105469 2192.589844 590.152344 C 2193.246094 553.398438 2190.539062 516.339844 2184.480469 478.984375 C 2184.339844 478.046875 2183.691406 477.265625 2182.796875 476.953125 C 2181.902344 476.644531 2180.90625 476.859375 2180.21875 477.511719 C 2164.410156 491.847656 2148.351562 503.890625 2135.164062 521.011719 C 2059.960938 618.742188 2017.851562 747.4375 1990.164062 863.601562 C 1989.597656 865.824219 1987.480469 867.269531 1985.25 866.960938 L 1983.121094 866.632812 C 1982.683594 866.523438 1982.492188 866.25 1982.546875 865.8125 C 1984.238281 829.769531 1982 795.28125 1975.828125 762.347656 C 1974.136719 753.226562 1970.503906 745.390625 1964.933594 738.835938 C 1961.203125 734.464844 1955.472656 732.339844 1949.792969 733.222656 C 1944.113281 734.109375 1939.300781 737.878906 1937.082031 743.179688 C 1908.328125 811.664062 1865.972656 870.316406 1823.046875 932.496094 C 1787.414062 984.1875 1761.28125 1042.515625 1763.492188 1104.691406 C 1763.601562 1109.113281 1762.042969 1112.855469 1758.824219 1115.914062 L 1742.191406 1131.398438 C 1738.914062 1134.402344 1737.332031 1133.691406 1737.441406 1129.265625 C 1738.996094 1069.136719 1689.273438 1020.804688 1641.59375 989.757812 C 1637.71875 987.246094 1636.351562 988.226562 1637.5 992.707031 Z M 1637.5 992.707031 "/>
<path style=" stroke:none;fill-rule:nonzero;fill:rgb(86.27451%,86.27451%,87.058824%);fill-opacity:1;" d="M 2790.441406 2690.5 C 2790.277344 2689.078125 2789.757812 2687.769531 2788.882812 2686.566406 C 2718.050781 2591.867188 2660.050781 2505.550781 2614.886719 2427.617188 C 2597.683594 2397.960938 2583.839844 2366.175781 2579.167969 2331.28125 C 2573.707031 2290.703125 2573.269531 2251.816406 2577.859375 2214.625 C 2578.242188 2211.238281 2579.796875 2210.554688 2582.527344 2212.578125 C 2667.5625 2275.382812 2754.585938 2337.449219 2843.605469 2398.78125 C 2889.917969 2430.730469 2939.125 2467.074219 2991.226562 2507.816406 C 3069.378906 2568.929688 3144.636719 2638.890625 3217 2717.695312 C 3297.691406 2805.597656 3360.113281 2915.042969 3404.921875 3023.339844 C 3416.007812 3050.046875 3426.90625 3075.796875 3437.609375 3100.589844 C 3483.8125 3207.851562 3514.777344 3327.015625 3530.507812 3458.089844 C 3531.214844 3463.988281 3530.042969 3469.394531 3526.984375 3474.308594 C 3524.089844 3479.007812 3520.019531 3480.507812 3514.777344 3478.816406 C 3434.824219 3452.65625 3357.300781 3433.183594 3282.207031 3420.40625 C 3058.511719 3382.339844 2836.589844 3358.226562 2616.441406 3348.070312 C 2569.96875 3345.941406 2519.285156 3345.339844 2464.398438 3346.269531 C 2135.574219 3351.730469 1813.382812 3356.207031 1497.824219 3359.703125 C 1432.015625 3360.414062 1377.265625 3362.734375 1333.574219 3366.667969 C 1165.886719 3381.820312 997.867188 3403.777344 839.515625 3449.242188 C 808.769531 3458.089844 780.015625 3469.640625 753.253906 3483.894531 C 749.667969 3485.8125 745.332031 3485.6875 741.863281 3483.5625 C 738.390625 3481.441406 736.304688 3477.640625 736.378906 3473.570312 C 736.925781 3445.335938 739.738281 3416.144531 744.816406 3386 C 757.160156 3313.308594 771.414062 3239.117188 787.578125 3163.421875 C 811.0625 3053.429688 849.128906 2945.953125 901.773438 2840.984375 C 1023.234375 2599.15625 1186.367188 2395.09375 1391.164062 2228.796875 C 1420.21875 2205.203125 1451.539062 2180.710938 1485.128906 2155.316406 C 1504.953125 2140.324219 1533.214844 2121.808594 1556.808594 2114.109375 C 1636.269531 2088.222656 1711.0625 2044.96875 1788.640625 2010.234375 C 1823.046875 1994.832031 1855.214844 1982.273438 1885.144531 1972.550781 C 1919.769531 1961.300781 1945.847656 1951.007812 1963.375 1941.667969 C 1992.046875 1926.375 2023.507812 1904.859375 2057.75 1877.113281 C 2093.957031 1847.707031 2117.714844 1813.136719 2143.683594 1776.515625 C 2190.539062 1710.269531 2224.703125 1652.027344 2246.164062 1601.78125 C 2284.722656 1511.453125 2327.15625 1431.796875 2373.46875 1362.820312 C 2373.632812 1362.546875 2373.578125 1362.328125 2373.304688 1362.164062 L 2371.664062 1360.9375 C 2370.300781 1360.007812 2369.125 1360.171875 2368.144531 1361.429688 C 2363.9375 1366.617188 2359.925781 1371.859375 2356.101562 1377.15625 C 2319.730469 1427.511719 2283.054688 1478.957031 2246.082031 1531.496094 C 2232.429688 1550.9375 2220.496094 1570.761719 2210.285156 1590.96875 C 2170.304688 1670.183594 2137.457031 1749.402344 2069.136719 1811.496094 C 2022.660156 1853.769531 1977.003906 1887.410156 1932.164062 1912.421875 C 1915.398438 1921.761719 1889.457031 1930.910156 1854.339844 1939.867188 C 1811.332031 1950.84375 1764.476562 1960.34375 1726.957031 1977.140625 C 1697.136719 1990.464844 1667.261719 2007.449219 1637.335938 2028.09375 C 1607.515625 2048.738281 1576.195312 2056.519531 1543.371094 2051.441406 C 1539.707031 2050.863281 1536.429688 2048.859375 1534.28125 2045.871094 C 1514.019531 2017.746094 1507.027344 1986.394531 1513.308594 1951.824219 C 1515 1942.488281 1512.1875 1940.847656 1504.871094 1946.910156 C 1491.191406 1958.296875 1478.328125 1989.019531 1470.957031 2002.78125 C 1465.496094 2012.828125 1461.507812 2012.28125 1458.996094 2001.140625 C 1446.296875 1945.765625 1458.585938 1874.574219 1512.570312 1843.609375 C 1517.535156 1840.769531 1520.183594 1835.105469 1519.207031 1829.4375 C 1512.40625 1789.296875 1479.640625 1762.179688 1466.53125 1724.742188 C 1462.652344 1713.65625 1459.40625 1702.460938 1456.785156 1691.15625 C 1454.160156 1679.742188 1452.113281 1679.851562 1450.640625 1691.484375 C 1445.941406 1729.167969 1452.140625 1766.496094 1469.234375 1803.46875 C 1470.433594 1806.121094 1470.40625 1809.175781 1469.152344 1811.824219 C 1467.351562 1815.648438 1464.785156 1817.914062 1461.453125 1818.625 C 1455.71875 1819.824219 1451.320312 1817.96875 1448.265625 1813.054688 C 1415.085938 1760.132812 1385.265625 1718.4375 1392.394531 1652.652344 C 1404.355469 1542.71875 1469.808594 1468.414062 1545.257812 1393.050781 C 1549.679688 1388.679688 1554.8125 1385.210938 1560.65625 1382.644531 C 1637.335938 1349.058594 1699.429688 1363.3125 1774.714844 1385.757812 C 1832.304688 1402.960938 1908.980469 1408.121094 1958.542969 1368.882812 C 1959.296875 1368.308594 1959.652344 1367.355469 1959.460938 1366.429688 C 1959.269531 1365.5 1958.5625 1364.769531 1957.640625 1364.542969 C 1893.417969 1346.355469 1851.226562 1311.210938 1802.402344 1268.859375 C 1798.308594 1265.308594 1798.992188 1263.617188 1804.453125 1263.78125 C 1859.503906 1265.335938 1914.632812 1267.054688 1969.355469 1257.308594 C 2013.265625 1249.445312 2063.238281 1228.71875 2108.539062 1212.742188 C 2119.242188 1208.976562 2119.214844 1205.234375 2108.457031 1201.519531 C 2084.125 1193.246094 2061.515625 1184.808594 2035.546875 1181.941406 C 2004.910156 1178.5 1952.316406 1171.375 1928.398438 1151.796875 C 1924.628906 1148.738281 1925.175781 1146.90625 1930.035156 1146.304688 C 1976.785156 1140.734375 2021.648438 1133.308594 2064.628906 1124.023438 C 2131.640625 1109.523438 2172.929688 1074.378906 2217.410156 1019.660156 C 2219.429688 1017.144531 2218.832031 1015.863281 2215.609375 1015.808594 C 2186.007812 1014.824219 2156.214844 1012.832031 2126.234375 1009.828125 C 2105.34375 1007.699219 2084.371094 1011.628906 2063.15625 1010.15625 C 2058.183594 1009.828125 2057.941406 1008.625 2062.417969 1006.550781 C 2104.25 986.835938 2152.367188 969.46875 2206.761719 954.449219 C 2268.28125 937.410156 2353.726562 897.105469 2369.453125 828.292969 C 2369.828125 826.742188 2369.359375 825.109375 2368.214844 824 C 2367.070312 822.886719 2365.421875 822.464844 2363.882812 822.886719 C 2306.867188 838.558594 2252.035156 845.6875 2199.386719 844.265625 C 2190.105469 843.996094 2189.667969 841.890625 2198.078125 837.960938 C 2251.542969 813 2304.519531 784.902344 2357.003906 753.664062 C 2397.035156 729.851562 2439.03125 690.175781 2482.996094 634.632812 C 2491.078125 624.421875 2499.460938 617.648438 2508.144531 614.316406 C 2519.285156 610.113281 2530.644531 606.261719 2542.222656 602.765625 C 2557.953125 598.015625 2557.84375 593.621094 2541.894531 589.578125 L 2489.304688 576.390625 C 2486.082031 575.570312 2486.054688 574.613281 2489.222656 573.523438 C 2529.472656 559.703125 2573.1875 541.082031 2620.375 517.652344 C 2661.171875 497.390625 2692.601562 469.921875 2714.664062 435.242188 C 2716.46875 432.402344 2717.285156 429.371094 2717.121094 426.148438 C 2716.992188 423.996094 2715.183594 422.332031 2713.027344 422.378906 C 2685.011719 423.035156 2658.90625 427.347656 2634.710938 435.324219 C 2631.050781 436.523438 2629.222656 435.214844 2629.222656 431.390625 C 2629.222656 428.222656 2630.398438 425.738281 2632.746094 423.9375 C 2647.65625 412.386719 2666.824219 408.78125 2681.816406 396.65625 C 2700.164062 381.800781 2713.191406 361.347656 2720.890625 335.296875 C 2741.535156 265.832031 2820.585938 271.238281 2861.136719 314.980469 C 2876.757812 331.804688 2886.859375 353.402344 2891.449219 379.78125 C 2892.277344 384.480469 2895.25 388.511719 2899.476562 390.675781 C 2907.832031 394.992188 2916.269531 398.921875 2924.789062 402.472656 C 2965.421875 419.511719 2972.957031 454.082031 2977.21875 493.320312 C 2977.601562 497.253906 2979.457031 500.3125 2982.789062 502.496094 C 3034.644531 536.574219 3057.171875 589.332031 3042.015625 650.28125 C 3038.140625 666.007812 3033.632812 681.902344 3028.5 697.957031 C 3027.082031 702.328125 3027.246094 706.613281 3028.992188 710.820312 C 3046.960938 754.785156 3034.863281 795.632812 2992.703125 833.371094 C 2991.027344 834.835938 2990.4375 837.1875 2991.226562 839.269531 C 3001.003906 866.742188 3005.042969 888.722656 3003.351562 905.214844 C 2999.746094 940.523438 2991.144531 972.308594 3003.84375 1008.1875 C 3008.539062 1021.40625 3012.691406 1034.539062 3016.292969 1047.59375 C 3039.285156 1130.933594 3068.777344 1218.152344 3104.769531 1309.246094 C 3119.921875 1347.664062 3129.097656 1426.71875 3064.710938 1421.148438 C 3048.40625 1419.753906 3020.308594 1415.988281 3004.335938 1421.722656 C 3001.761719 1422.640625 2999.773438 1424.71875 2998.953125 1427.335938 C 2998.136719 1429.953125 2998.578125 1432.8125 3000.15625 1435.074219 C 3010.886719 1450.476562 3033.578125 1465.957031 3031.449219 1485.863281 C 3028.5 1514.617188 3013.097656 1544.027344 2981.394531 1545.914062 C 2977.082031 1546.183594 2976.234375 1548.042969 2978.855469 1551.484375 C 2993.191406 1569.996094 3002.53125 1595.554688 2984.835938 1615.378906 C 2969.355469 1632.582031 2945.925781 1627.914062 2929.296875 1643.726562 C 2927.988281 1644.96875 2927.296875 1646.726562 2927.40625 1648.519531 C 2927.519531 1650.308594 2928.421875 1651.945312 2929.867188 1652.980469 C 2945.925781 1664.832031 2956.054688 1679.960938 2960.261719 1698.367188 C 2982.789062 1797.898438 2951.90625 1865.726562 2851.960938 1894.5625 C 2759.886719 1921.1875 2670.753906 1924.957031 2582.9375 1893.992188 C 2540.285156 1878.917969 2497.769531 1863.679688 2455.386719 1848.277344 C 2422.046875 1836.15625 2391.492188 1819.441406 2361.753906 1802.320312 C 2344.003906 1792.109375 2339.664062 1796.179688 2348.726562 1814.527344 C 2350.257812 1817.640625 2355.417969 1823.539062 2364.210938 1832.222656 C 2404.296875 1871.707031 2452.300781 1899.097656 2508.226562 1914.386719 C 2536.296875 1922.035156 2566.691406 1926.785156 2599.402344 1928.640625 C 2602.515625 1928.859375 2603.964844 1930.5 2603.746094 1933.558594 C 2602.324219 1953 2599.046875 1971.921875 2593.914062 1990.328125 C 2575.347656 2056.519531 2558.472656 2122.136719 2543.289062 2187.183594 C 2524.28125 2268.691406 2539.273438 2349.875 2567.617188 2433.597656 C 2579.6875 2469.316406 2599.757812 2504.976562 2627.828125 2540.585938 C 2675.289062 2600.714844 2728.34375 2651.339844 2787 2692.464844 C 2789.675781 2694.375 2790.824219 2693.722656 2790.441406 2690.5 Z M 2981.476562 760.792969 C 2993.765625 683.949219 2969.847656 618.414062 2919.546875 563.609375 C 2909.226562 552.359375 2905.046875 554.296875 2907.011719 569.425781 C 2908.242188 579.339844 2917.828125 595.640625 2920.777344 607.273438 C 2933.226562 656.917969 2945.40625 707.050781 2957.3125 757.679688 C 2960.261719 770.128906 2964.984375 781.980469 2971.484375 793.230469 C 2973.613281 797 2975.089844 796.753906 2975.90625 792.492188 C 2977.929688 782.226562 2979.785156 771.660156 2981.476562 760.792969 Z M 2843.035156 714.507812 C 2853.765625 690.914062 2854.992188 666.253906 2859.335938 641.1875 C 2860.375 635.234375 2859.664062 635.015625 2857.207031 640.53125 C 2849.449219 658.28125 2839.539062 673.054688 2827.46875 684.851562 C 2811.414062 700.578125 2807.316406 719.257812 2797.894531 738.589844 C 2772.582031 790.199219 2736.867188 808.796875 2689.433594 835.09375 C 2675.507812 842.792969 2661.554688 855.054688 2647.574219 871.875 C 2613.382812 912.945312 2585.585938 954.339844 2564.179688 996.066406 C 2557.351562 1009.390625 2558.960938 1010.539062 2569.011719 999.507812 C 2593.96875 972.199219 2618.902344 943.664062 2643.804688 913.898438 C 2663.519531 890.359375 2681.460938 874.878906 2697.625 867.449219 C 2749.5625 843.53125 2798.140625 813.546875 2821.242188 762.511719 C 2828.289062 747 2835.550781 731 2843.035156 714.507812 Z M 868.679688 3199.632812 C 858.765625 3241.65625 857.539062 3289.414062 861.144531 3331.523438 C 862.671875 3348.890625 868.871094 3363.691406 879.738281 3375.921875 C 881.523438 3377.941406 884.269531 3378.828125 886.898438 3378.230469 C 889.523438 3377.632812 891.617188 3375.648438 892.355469 3373.054688 C 900.464844 3344.054688 902.265625 3314.320312 912.261719 3286.058594 C 963.378906 3141.140625 1030.554688 3005.234375 1099.039062 2866.707031 C 1170.527344 2722.203125 1254.933594 2573.023438 1352.253906 2419.179688 C 1374.042969 2384.71875 1393.542969 2349.765625 1410.746094 2314.320312 C 1413.257812 2309.1875 1412.082031 2308.179688 1407.222656 2311.289062 C 1385.484375 2325.273438 1363.695312 2342.230469 1341.847656 2362.164062 C 1280.191406 2418.414062 1221.535156 2480.59375 1165.886719 2548.695312 C 1077.902344 2656.582031 1013.1875 2776.597656 963.707031 2906.03125 C 950.164062 2941.527344 935.554688 2980.277344 919.878906 3022.273438 C 898.089844 3080.601562 882.6875 3140.15625 868.679688 3199.632812 Z M 1542.964844 2596.125 C 1627.066406 2618.683594 1707.375 2637.90625 1783.890625 2653.796875 C 1910.59375 2680.175781 2059.195312 2718.816406 2229.699219 2769.714844 C 2284.257812 2785.988281 2336.578125 2806.632812 2386.65625 2831.648438 C 2438.867188 2857.644531 2485.425781 2882.246094 2526.332031 2905.457031 C 2600.660156 2947.453125 2672.585938 2995.433594 2742.109375 3049.390625 C 2788.964844 3085.84375 2831.8125 3128.035156 2875.800781 3170.304688 C 2903.574219 3196.929688 2934.210938 3219.292969 2963.867188 3242.96875 C 2969.492188 3247.5 2975.445312 3248.347656 2981.722656 3245.507812 C 2996.578125 3238.789062 3001.574219 3226.71875 2996.714844 3209.296875 C 2983.992188 3163.421875 2973.3125 3119.1875 2964.683594 3076.585938 C 2952.070312 3014.410156 2960.425781 2948.464844 2964.355469 2884.238281 C 2966.160156 2854.75 2949.855469 2832.875 2927.328125 2815.835938 C 2891.777344 2788.964844 2859.035156 2766.464844 2829.105469 2748.335938 C 2827.132812 2747.148438 2824.640625 2747.277344 2822.800781 2748.660156 L 2821.078125 2749.972656 C 2820.546875 2750.386719 2820.230469 2751.023438 2820.230469 2751.683594 C 2820.230469 2752.347656 2820.546875 2752.957031 2821.078125 2753.332031 C 2849.015625 2774.382812 2962.882812 2855.402344 2942.402344 2894.808594 C 2933.882812 2911.109375 2903.898438 2905.867188 2889.890625 2901.6875 C 2833.285156 2884.8125 2778.316406 2858.761719 2719.582031 2842.871094 C 2644.867188 2822.71875 2572.207031 2790.851562 2494.957031 2768.894531 C 2220.523438 2690.988281 1941.09375 2621.605469 1663.878906 2587.933594 C 1610.738281 2581.492188 1549.925781 2578.351562 1481.441406 2578.515625 C 1480.839844 2578.515625 1480.511719 2578.785156 1480.457031 2579.332031 L 1480.210938 2582.117188 C 1480.046875 2583.484375 1480.648438 2584.25 1482.015625 2584.414062 C 1502.929688 2586.980469 1523.246094 2590.882812 1542.964844 2596.125 Z M 3362.488281 3271.476562 C 3354.871094 3117.054688 3259.84375 2958.214844 3153.019531 2833.941406 C 3119.214844 2794.617188 3080.765625 2763.707031 3037.675781 2741.207031 C 3035 2739.839844 3033.605469 2740.632812 3033.496094 2743.582031 C 3033.441406 2745.601562 3033.960938 2747.378906 3035.054688 2748.90625 C 3136.960938 2895.214844 3234.285156 3041.527344 3289.988281 3207.167969 C 3307.847656 3260.253906 3320.136719 3316.613281 3332.996094 3371.992188 C 3333.214844 3372.921875 3333.976562 3373.636719 3334.910156 3373.785156 C 3335.84375 3373.929688 3336.746094 3373.476562 3337.175781 3372.644531 C 3355.6875 3339.058594 3364.125 3305.335938 3362.488281 3271.476562 Z M 3362.488281 3271.476562 "/>
</g>
</svg>
